<svg width="37" height="27" viewBox="0 0 37 27" fill="none" xmlns="http://www.w3.org/2000/svg">
<path d="M0.000245261 16C0.00024547 18.3869 0.790422 20.6761 2.19694 22.364C3.60347 24.0518 5.51112 25 7.50024 25C9.48937 25 11.397 24.0518 12.8035 22.364C14.2101 20.6761 15.0002 18.3869 15.0002 16L7.50024 16L0.000245261 16Z" fill="#D1B06B"/>
<path d="M22.0002 16C22.0002 18.3869 22.7904 20.6761 24.1969 22.364C25.6035 24.0518 27.5111 25 29.5002 25C31.4894 25 33.397 24.0518 34.8035 22.364C36.2101 20.6761 37.0002 18.3869 37.0002 16L29.5002 16L22.0002 16Z" fill="#D1B06B"/>
<path d="M1.00024 16L6.62095 5.62331C6.99919 4.92502 8.0013 4.92502 8.37954 5.62331L14.0002 16" stroke="#D1B06B" stroke-width="2" stroke-linecap="round"/>
<path d="M23.0002 16L28.621 5.62331C28.9992 4.92502 30.0013 4.92502 30.3795 5.62331L36.0002 16" stroke="#D1B06B" stroke-width="2" stroke-linecap="round"/>
<line x1="6.50024" y1="3.5" x2="30.5002" y2="3.5" stroke="#D1B06B" stroke-width="3" stroke-linecap="round"/>
<line x1="18.5002" y1="25.5" x2="18.5002" y2="1.5" stroke="#D1B06B" stroke-width="3" stroke-linecap="round"/>
</svg>
